Coordinates
version=1
nRows=32
nColumns=22
inDegrees=yes

Units are S.I. units (second, meters, Newtons, ...)
If the header above contains a line with 'inDegrees', this indicates whether rotational values are in degrees (yes) or radians (no).

endheader
time	pelvis_tilt	pelvis_list	pelvis_rotation	pelvis_tx	pelvis_ty	pelvis_tz	hip_flexion_r	hip_adduction_r	hip_rotation_r	knee_angle_r	ankle_angle_r	subtalar_angle_r	hip_flexion_l	hip_adduction_l	hip_rotation_l	knee_angle_l	ankle_angle_l	subtalar_angle_l	lumbar_extension	lumbar_bending	lumbar_rotation
      0.01000000	      5.14188535	     -3.55119488	      1.24279820	     -0.67714965	      0.95504520	      0.58781576	     -4.74908047	      3.84464889	    -10.79308977	     -8.66900119	      8.33974432	      1.50208083	     -1.57940781	     -5.10443371	    -16.12467533	    -16.72516436	     23.76598869	     12.25663210	    -13.04825564	      4.42024213	     -9.27705666
      0.02000000	      5.07075378	     -3.46186715	      1.30339331	     -0.67733872	      0.95485613	      0.58704493	     -4.61561186	      3.68477668	    -10.93576569	     -8.77073000	      8.42439457	      1.52272063	     -2.16948337	     -4.20828035	    -12.83279160	    -15.19161527	     19.91964630	     -7.32739082	    -12.97472710	      4.42974740	     -9.36415147
      0.03000000	      5.07390429	     -3.46053606	      1.30267102	     -0.67735317	      0.95486312	      0.58706372	     -4.61669563	      3.68389997	    -10.93631491	     -8.77317485	      8.42480734	      1.52319684	     -2.17072140	     -4.20794606	    -12.83342816	    -15.19386893	     19.91867833	     -7.32766451	    -12.96749522	      4.43204116	     -9.36390279
      0.04000000	      5.07698267	     -3.45865553	      1.30311757	     -0.67737020	      0.95487004	      0.58708411	     -4.61744273	      3.68324847	    -10.93731937	     -8.77563070	      8.42540070	      1.52369542	     -2.17187354	     -4.20727382	    -12.83472146	    -15.19594785	     19.91732224	     -7.32800481	    -12.95990679	      4.43467321	     -9.36324769
      0.05000000	      5.07980495	     -3.45654493	      1.30362126	     -0.67738789	      0.95487574	      0.58710718	     -4.61796479	      3.68247958	    -10.93880780	     -8.77769957	      8.42619196	      1.52417327	     -2.17307932	     -4.20689328	    -12.83606946	    -15.19812077	     19.91579369	     -7.32835942	    -12.95225773	      4.43717287	     -9.36216729
      0.06000000	      5.08228063	     -3.45420580	      1.30388881	     -0.67740028	      0.95487987	      0.58713272	     -4.61889986	      3.68131718	    -10.94141011	     -8.77988099	      8.42756952	      1.52477972	     -2.17390665	     -4.20671852	    -12.83778946	    -15.20061656	     19.91376972	     -7.32881057	    -12.94315744	      4.43994084	     -9.36013223
      0.07000000	      5.08398906	     -3.45179241	      1.30377123	     -0.67741192	      0.95488178	      0.58716036	     -4.61908037	      3.68021081	    -10.94564937	     -8.78129157	      8.42992425	      1.52557772	     -2.17418732	     -4.20660239	    -12.84011676	    -15.20326060	     19.91123853	     -7.32935204	    -12.93334688	      4.44273099	     -9.35676457
      0.08000000	      5.08478567	     -3.44939305	      1.30329776	     -0.67742143	      0.95488307	      0.58718754	     -4.61876597	      3.67900593	    -10.95149547	     -8.78220492	      8.43348039	      1.52658500	     -2.17379812	     -4.20651028	    -12.84319279	    -15.20601236	     19.90821591	     -7.32994984	    -12.92241722	      4.44585034	     -9.35183545
      0.09000000	      5.08670688	     -3.44712307	      1.30321830	     -0.67745648	      0.95488409	      0.58722617	     -4.61800368	      3.67942595	    -10.95180944	     -8.78190347	      8.43367768	      1.52663829	     -2.17349867	     -4.20706290	    -12.84331460	    -15.20590287	     19.90808477	     -7.32997896	    -12.92122234	      4.44674337	     -9.35151092
      0.10000000	      5.08900643	     -3.44446775	      1.30298731	     -0.67745418	      0.95488535	      0.58724801	     -4.62030894	      3.67732735	    -10.95469236	     -8.78384104	      8.43579565	      1.52711906	     -2.17499249	     -4.20603568	    -12.84503120	    -15.20924063	     19.90606499	     -7.33030023	    -12.90938734	      4.45206038	     -9.34738485
      0.11000000	      5.09006884	     -3.44187595	      1.30264673	     -0.67746057	      0.95488511	      0.58727225	     -4.62076936	      3.67564729	    -10.95810411	     -8.78437487	      8.43845619	      1.52769436	     -2.17467911	     -4.20491789	    -12.84777864	    -15.21130490	     19.90328018	     -7.33078389	    -12.89956009	      4.45688446	     -9.34272171
      0.12000000	      5.09127460	     -3.43893328	      1.30255392	     -0.67746968	      0.95488550	      0.58729701	     -4.62125185	      3.67389705	    -10.95977543	     -8.78516818	      8.44053985	      1.52812519	     -2.17381318	     -4.20332330	    -12.85017604	    -15.21333304	     19.90036551	     -7.33133287	    -12.89147989	      4.46108692	     -9.33943472
      0.13000000	      5.09295553	     -3.43542755	      1.30270746	     -0.67747692	      0.95488651	      0.58731854	     -4.62232536	      3.67146126	    -10.95999065	     -8.78604911	      8.44230674	      1.52842619	     -2.17297537	     -4.20069671	    -12.85210124	    -15.21590794	     19.89735863	     -7.33195512	    -12.88405578	      4.46550188	     -9.33735260
      0.14000000	      5.09489071	     -3.43128967	      1.30305047	     -0.67748016	      0.95488589	      0.58733707	     -4.62395035	      3.66848216	    -10.95943356	     -8.78665111	      8.44441610	      1.52868982	     -2.17206219	     -4.19684106	    -12.85378972	    -15.21899520	     19.89403653	     -7.33270977	    -12.87652552	      4.47009167	     -9.33606847
      0.15000000	      5.09649082	     -3.42655200	      1.30322088	     -0.67748157	      0.95488517	      0.58735585	     -4.62574066	      3.66481599	    -10.95871979	     -8.78630228	      8.44777943	      1.52902088	     -2.17090947	     -4.19231043	    -12.85523432	    -15.22238812	     19.89013991	     -7.33368719	    -12.86850828	      4.47420343	     -9.33559536
      0.16000000	      5.09830878	     -3.42404523	      1.30304637	     -0.67750232	      0.95488344	      0.58739796	     -4.62553388	      3.66535181	    -10.95876957	     -8.78607002	      8.44814909	      1.52905839	     -2.17016636	     -4.19223207	    -12.85526558	    -15.22224878	     19.88987161	     -7.33376732	    -12.86735201	      4.47517966	     -9.33556249
      0.17000000	      5.09993758	     -3.41936085	      1.30234250	     -0.67748747	      0.95488154	      0.58741530	     -4.62911764	      3.66102168	    -10.95951092	     -8.78463660	      8.45375449	      1.52951197	     -2.17093454	     -4.18762679	    -12.85481893	    -15.22642552	     19.88695931	     -7.33460285	    -12.85522547	      4.48105644	     -9.33593939
      0.18000000	      5.08057404	     -3.40712029	      1.31656988	     -0.67748525	      0.95484540	      0.58743761	     -4.61263965	      3.65245007	    -10.97554942	     -8.77813429	      8.52421938	      1.53590295	     -2.14503521	     -4.17613685	    -12.83226271	    -15.22898408	     19.86766761	     -7.34458215	    -12.82148447	      4.47205601	     -9.36012807
      0.19000000	      5.08205849	     -3.40487191	      1.31624033	     -0.67750715	      0.95484356	      0.58747954	     -4.61243312	      3.65266575	    -10.97581851	     -8.77798238	      8.52426287	      1.53591122	     -2.14469872	     -4.17666940	    -12.83205398	    -15.22883982	     19.86776905	     -7.34460341	    -12.82049763	      4.47324810	     -9.36001541
      0.20000000	      5.08381123	     -3.40279759	      1.31526493	     -0.67749684	      0.95484152	      0.58750371	     -4.61558478	      3.65133043	    -10.97833143	     -8.77804521	      8.52524536	      1.53598647	     -2.14670928	     -4.17543781	    -12.82956945	    -15.23124880	     19.86923411	     -7.34468599	    -12.81115397	      4.47965232	     -9.35941425
      0.21000000	      5.08487721	     -3.40070567	      1.31532916	     -0.67751604	      0.95483870	      0.58754524	     -4.61571396	      3.65195343	    -10.97857153	     -8.77793452	      8.52535621	      1.53599758	     -2.14620323	     -4.17586595	    -12.82930282	    -15.23094994	     19.86942737	     -7.34469638	    -12.81027985	      4.48060336	     -9.35933375
      0.22000000	      5.08620018	     -3.39946024	      1.31783255	     -0.67750995	      0.95483534	      0.58757751	     -4.61916141	      3.65299976	    -10.98061505	     -8.77687526	      8.52675318	      1.53597581	     -2.14699652	     -4.17666005	    -12.82477590	    -15.23269908	     19.87233591	     -7.34473670	    -12.80087303	      4.48452864	     -9.35878077
      0.23000000	      5.08730250	     -3.39743286	      1.31768355	     -0.67753622	      0.95483230	      0.58762577	     -4.61892777	      3.65363617	    -10.98086161	     -8.77655441	      8.52684017	      1.53597069	     -2.14630796	     -4.17751706	    -12.82437644	    -15.23232398	     19.87257432	     -7.34474483	    -12.80048987	      4.48519099	     -9.35875254
      0.24000000	      5.08854577	     -3.39552544	      1.31724408	     -0.67756431	      0.95483071	      0.58768044	     -4.61845294	      3.65446830	    -10.98126213	     -8.77619929	      8.52694860	      1.53595462	     -2.14568461	     -4.17881863	    -12.82377009	    -15.23208846	     19.87287541	     -7.34475230	    -12.80010224	      4.48552108	     -9.35868864
      0.25000000	      5.08874626	     -3.39798854	      1.31129745	     -0.67759932	      0.95482794	      0.58778355	     -4.61523098	      3.66251344	    -10.98655733	     -8.77540532	      8.52827549	      1.53570097	     -2.14361823	     -4.18742550	    -12.81771943	    -15.23371165	     19.87582953	     -7.34475870	    -12.80122171	      4.47924833	     -9.35785300
      0.26000000	      5.08604445	     -3.41756243	      1.31898406	     -0.67764791	      0.95480916	      0.58783685	     -4.59772072	      3.68482327	    -11.02291380	     -8.79576984	      8.53958469	      1.53248969	     -2.12628510	     -4.21457187	    -12.79422520	    -15.25321474	     19.90075968	     -7.34460243	    -12.79917943	      4.50508678	     -9.33549421
      0.27000000	      5.08672315	     -3.41701837	      1.31518731	     -0.67767297	      0.95480615	      0.58792087	     -4.59471259	      3.68824639	    -11.02602806	     -8.79664491	      8.54037706	      1.53224556	     -2.12507630	     -4.21931744	    -12.79447166	    -15.25507879	     19.90244936	     -7.34472610	    -12.79767004	      4.50022623	     -9.33972296
      0.28000000	      5.08827517	     -3.41497356	      1.31508390	     -0.67769811	      0.95480418	      0.58797328	     -4.59394866	      3.68874379	    -11.02637168	     -8.79663578	      8.54050486	      1.53223328	     -2.12465078	     -4.22025870	    -12.79445462	    -15.25510201	     19.90259889	     -7.34473480	    -12.79705587	      4.50084015	     -9.33983654
      0.29000000	      5.08981360	     -3.41325253	      1.31470746	     -0.67772310	      0.95480301	      0.58802420	     -4.59317145	      3.68945232	    -11.02692527	     -8.79677756	      8.54073536	      1.53223392	     -2.12420163	     -4.22153341	    -12.79431537	    -15.25537723	     19.90275876	     -7.34474244	    -12.79642605	      4.50100968	     -9.34003592
      0.30000000	      5.08614605	     -3.42926273	      1.32959148	     -0.67778992	      0.95477626	      0.58807622	     -4.56674191	      3.70785366	    -11.08031343	     -8.83308803	      8.57142276	      1.53337308	     -2.08486907	     -4.25278957	    -12.79596074	    -15.31307719	     19.91968260	     -7.34402394	    -12.79567176	      4.51764589	     -9.35054505
      0.31000000	      5.08739884	     -3.42752350	      1.32921673	     -0.67781706	      0.95477443	      0.58811823	     -4.56642606	      3.70821189	    -11.08052321	     -8.83269681	      8.57149169	      1.53339384	     -2.08412445	     -4.25337937	    -12.79587579	    -15.31274066	     19.91982757	     -7.34399118	    -12.79488009	      4.51807137	     -9.35074235
      0.32000000	      5.08855752	     -3.42593040	      1.32876898	     -0.67784321	      0.95477384	      0.58815992	     -4.56635354	      3.70876326	    -11.08079209	     -8.83227781	      8.57160172	      1.53343824	     -2.08323452	     -4.25405780	    -12.79571229	    -15.31255284	     19.91993533	     -7.34396164	    -12.79402483	      4.51815960	     -9.35101380
